<mxfile host="app.diagrams.net" modified="2020-10-13T09:53:22.403Z" agent="5.0 (Windows)" etag="dJxDpXEaFH96TpnDO1Jx" version="13.7.9" type="github">
  <diagram name="Page-1" id="e7e014a7-5840-1c2e-5031-d8a46d1fe8dd">
    <mxGraphModel dx="1422" dy="763" grid="1" gridSize="10" guides="1" tooltips="1" connect="1" arrows="1" fold="1" page="1" pageScale="1" pageWidth="1169" pageHeight="826" background="#ffffff" math="0" shadow="0">
      <root>
        <mxCell id="0" />
        <mxCell id="1" parent="0" />
        <mxCell id="sRtUOLRBgrClI-MuPztA-41" value="Actor" style="shape=umlActor;verticalLabelPosition=bottom;verticalAlign=top;html=1;outlineConnect=0;" parent="1" vertex="1">
          <mxGeometry x="240" y="370" width="90" height="180" as="geometry" />
        </mxCell>
        <mxCell id="sRtUOLRBgrClI-MuPztA-45" value="" style="html=1;" parent="1" vertex="1">
          <mxGeometry x="360" y="140" width="760" height="606" as="geometry" />
        </mxCell>
        <mxCell id="sRtUOLRBgrClI-MuPztA-47" value="Game" style="text;align=center;fontStyle=1;verticalAlign=middle;spacingLeft=3;spacingRight=3;strokeColor=none;rotatable=0;points=[[0,0.5],[1,0.5]];portConstraint=eastwest;" parent="1" vertex="1">
          <mxGeometry x="360" y="114" width="80" height="26" as="geometry" />
        </mxCell>
        <mxCell id="sRtUOLRBgrClI-MuPztA-48" value="Movement" style="ellipse;whiteSpace=wrap;html=1;fillColor=#f5f5f5;gradientColor=#b3b3b3;strokeColor=#666666;" parent="1" vertex="1">
          <mxGeometry x="410" y="425" width="140" height="70" as="geometry" />
        </mxCell>
        <mxCell id="sRtUOLRBgrClI-MuPztA-49" value="Taming" style="ellipse;whiteSpace=wrap;html=1;gradientColor=#b3b3b3;fillColor=#f5f5f5;strokeColor=#666666;" parent="1" vertex="1">
          <mxGeometry x="660" y="566" width="140" height="70" as="geometry" />
        </mxCell>
        <mxCell id="sRtUOLRBgrClI-MuPztA-50" value="Battle" style="ellipse;whiteSpace=wrap;html=1;fillColor=#f5f5f5;gradientColor=#b3b3b3;strokeColor=#666666;" parent="1" vertex="1">
          <mxGeometry x="410" y="636" width="140" height="70" as="geometry" />
        </mxCell>
        <mxCell id="sRtUOLRBgrClI-MuPztA-51" value="&lt;div&gt;&amp;nbsp;Start Menu&lt;/div&gt;" style="ellipse;whiteSpace=wrap;html=1;" parent="1" vertex="1">
          <mxGeometry x="410" y="150" width="140" height="70" as="geometry" />
        </mxCell>
        <mxCell id="sRtUOLRBgrClI-MuPztA-52" value="Fight" style="ellipse;whiteSpace=wrap;html=1;gradientColor=#b3b3b3;fillColor=#f5f5f5;strokeColor=#666666;" parent="1" vertex="1">
          <mxGeometry x="660" y="666" width="140" height="70" as="geometry" />
        </mxCell>
        <mxCell id="sRtUOLRBgrClI-MuPztA-53" value="" style="endArrow=none;html=1;edgeStyle=orthogonalEdgeStyle;exitX=0.5;exitY=0.5;exitDx=0;exitDy=0;exitPerimeter=0;" parent="1" source="sRtUOLRBgrClI-MuPztA-41" target="sRtUOLRBgrClI-MuPztA-48" edge="1">
          <mxGeometry relative="1" as="geometry">
            <mxPoint x="550" y="450" as="sourcePoint" />
            <mxPoint x="710" y="450" as="targetPoint" />
          </mxGeometry>
        </mxCell>
        <mxCell id="sRtUOLRBgrClI-MuPztA-56" value="" style="endArrow=none;html=1;edgeStyle=orthogonalEdgeStyle;entryX=0;entryY=0.5;entryDx=0;entryDy=0;" parent="1" source="sRtUOLRBgrClI-MuPztA-41" target="sRtUOLRBgrClI-MuPztA-51" edge="1">
          <mxGeometry relative="1" as="geometry">
            <mxPoint x="160" y="660" as="sourcePoint" />
            <mxPoint x="320" y="660" as="targetPoint" />
          </mxGeometry>
        </mxCell>
        <mxCell id="sRtUOLRBgrClI-MuPztA-59" value="" style="endArrow=none;html=1;edgeStyle=orthogonalEdgeStyle;entryX=0;entryY=0.5;entryDx=0;entryDy=0;" parent="1" source="sRtUOLRBgrClI-MuPztA-41" target="sRtUOLRBgrClI-MuPztA-50" edge="1">
          <mxGeometry relative="1" as="geometry">
            <mxPoint x="550" y="450" as="sourcePoint" />
            <mxPoint x="710" y="450" as="targetPoint" />
          </mxGeometry>
        </mxCell>
        <mxCell id="sRtUOLRBgrClI-MuPztA-62" value="Use" style="endArrow=open;endSize=12;dashed=1;html=1;exitX=1;exitY=0.5;exitDx=0;exitDy=0;entryX=0;entryY=0.5;entryDx=0;entryDy=0;" parent="1" source="sRtUOLRBgrClI-MuPztA-50" target="sRtUOLRBgrClI-MuPztA-49" edge="1">
          <mxGeometry width="160" relative="1" as="geometry">
            <mxPoint x="550" y="516" as="sourcePoint" />
            <mxPoint x="710" y="516" as="targetPoint" />
          </mxGeometry>
        </mxCell>
        <mxCell id="sRtUOLRBgrClI-MuPztA-63" value="Use" style="endArrow=open;endSize=12;dashed=1;html=1;exitX=1;exitY=0.5;exitDx=0;exitDy=0;entryX=0;entryY=0.5;entryDx=0;entryDy=0;" parent="1" source="sRtUOLRBgrClI-MuPztA-50" target="sRtUOLRBgrClI-MuPztA-52" edge="1">
          <mxGeometry width="160" relative="1" as="geometry">
            <mxPoint x="550" y="516" as="sourcePoint" />
            <mxPoint x="710" y="516" as="targetPoint" />
          </mxGeometry>
        </mxCell>
        <mxCell id="sRtUOLRBgrClI-MuPztA-64" value="Interact" style="ellipse;whiteSpace=wrap;html=1;" parent="1" vertex="1">
          <mxGeometry x="600" y="240" width="140" height="70" as="geometry" />
        </mxCell>
        <mxCell id="sRtUOLRBgrClI-MuPztA-65" value="" style="endArrow=none;html=1;edgeStyle=orthogonalEdgeStyle;exitX=0.5;exitY=0.5;exitDx=0;exitDy=0;exitPerimeter=0;entryX=0;entryY=0.5;entryDx=0;entryDy=0;" parent="1" source="sRtUOLRBgrClI-MuPztA-41" target="sRtUOLRBgrClI-MuPztA-64" edge="1">
          <mxGeometry relative="1" as="geometry">
            <mxPoint x="550" y="450" as="sourcePoint" />
            <mxPoint x="710" y="450" as="targetPoint" />
            <Array as="points">
              <mxPoint x="370" y="460" />
              <mxPoint x="370" y="275" />
            </Array>
          </mxGeometry>
        </mxCell>
        <mxCell id="sRtUOLRBgrClI-MuPztA-69" value="Dialog" style="ellipse;whiteSpace=wrap;html=1;" parent="1" vertex="1">
          <mxGeometry x="810" y="160" width="140" height="70" as="geometry" />
        </mxCell>
        <mxCell id="sRtUOLRBgrClI-MuPztA-70" value="Trading" style="ellipse;whiteSpace=wrap;html=1;" parent="1" vertex="1">
          <mxGeometry x="810" y="300" width="140" height="70" as="geometry" />
        </mxCell>
        <mxCell id="sRtUOLRBgrClI-MuPztA-71" value="Use" style="endArrow=open;endSize=12;dashed=1;html=1;exitX=1;exitY=0.5;exitDx=0;exitDy=0;entryX=0;entryY=0.5;entryDx=0;entryDy=0;" parent="1" source="sRtUOLRBgrClI-MuPztA-64" target="sRtUOLRBgrClI-MuPztA-69" edge="1">
          <mxGeometry width="160" relative="1" as="geometry">
            <mxPoint x="550" y="450" as="sourcePoint" />
            <mxPoint x="710" y="450" as="targetPoint" />
          </mxGeometry>
        </mxCell>
        <mxCell id="sRtUOLRBgrClI-MuPztA-72" value="Use" style="endArrow=open;endSize=12;dashed=1;html=1;exitX=1;exitY=0.5;exitDx=0;exitDy=0;entryX=0;entryY=0.5;entryDx=0;entryDy=0;" parent="1" source="sRtUOLRBgrClI-MuPztA-64" target="sRtUOLRBgrClI-MuPztA-70" edge="1">
          <mxGeometry width="160" relative="1" as="geometry">
            <mxPoint x="680" y="480" as="sourcePoint" />
            <mxPoint x="840" y="480" as="targetPoint" />
          </mxGeometry>
        </mxCell>
        <mxCell id="sRtUOLRBgrClI-MuPztA-73" value="Screenchange" style="ellipse;whiteSpace=wrap;html=1;gradientColor=#b3b3b3;fillColor=#f5f5f5;strokeColor=#666666;" parent="1" vertex="1">
          <mxGeometry x="660" y="425" width="140" height="70" as="geometry" />
        </mxCell>
        <mxCell id="sRtUOLRBgrClI-MuPztA-74" value="Use" style="endArrow=open;endSize=12;dashed=1;html=1;exitX=1;exitY=0.5;exitDx=0;exitDy=0;entryX=0;entryY=0.5;entryDx=0;entryDy=0;" parent="1" source="sRtUOLRBgrClI-MuPztA-48" target="sRtUOLRBgrClI-MuPztA-73" edge="1">
          <mxGeometry width="160" relative="1" as="geometry">
            <mxPoint x="540" y="520" as="sourcePoint" />
            <mxPoint x="700" y="520" as="targetPoint" />
          </mxGeometry>
        </mxCell>
        <mxCell id="oWxDJWbDWD7QERlQmMKp-1" value="Character Creation" style="ellipse;whiteSpace=wrap;html=1;strokeColor=#000000;" vertex="1" parent="1">
          <mxGeometry x="410" y="310" width="140" height="70" as="geometry" />
        </mxCell>
        <mxCell id="oWxDJWbDWD7QERlQmMKp-2" value="" style="endArrow=none;html=1;edgeStyle=orthogonalEdgeStyle;exitX=0.5;exitY=0.5;exitDx=0;exitDy=0;exitPerimeter=0;entryX=0;entryY=0.5;entryDx=0;entryDy=0;" edge="1" parent="1" source="sRtUOLRBgrClI-MuPztA-41" target="oWxDJWbDWD7QERlQmMKp-1">
          <mxGeometry relative="1" as="geometry">
            <mxPoint x="500" y="480" as="sourcePoint" />
            <mxPoint x="660" y="480" as="targetPoint" />
          </mxGeometry>
        </mxCell>
        <mxCell id="oWxDJWbDWD7QERlQmMKp-5" value="PVE Interactions" style="ellipse;whiteSpace=wrap;html=1;strokeColor=#000000;" vertex="1" parent="1">
          <mxGeometry x="420" y="530" width="140" height="70" as="geometry" />
        </mxCell>
        <mxCell id="oWxDJWbDWD7QERlQmMKp-6" value="" style="endArrow=none;html=1;edgeStyle=orthogonalEdgeStyle;exitX=0.5;exitY=0.5;exitDx=0;exitDy=0;exitPerimeter=0;entryX=0;entryY=0.5;entryDx=0;entryDy=0;" edge="1" parent="1" source="sRtUOLRBgrClI-MuPztA-41" target="oWxDJWbDWD7QERlQmMKp-5">
          <mxGeometry relative="1" as="geometry">
            <mxPoint x="500" y="480" as="sourcePoint" />
            <mxPoint x="660" y="480" as="targetPoint" />
            <Array as="points">
              <mxPoint x="370" y="460" />
              <mxPoint x="370" y="565" />
            </Array>
          </mxGeometry>
        </mxCell>
      </root>
    </mxGraphModel>
  </diagram>
</mxfile>
